# xmcd
#
# Track frame offsets: 
#        150
#        7219
#        33171
#        67458
#        92709
#        109279
#        127292
#        147066
#        169382
#        188120
#        208602
#
# Disc length: 2947 seconds
#
# Revision: 0
# Processed by: cddbd v1.5.2PL0 Copyright (c) Steve Scherf et al.
# Submitted via: ExactAudioCopy v0.99pb4
#
DISCID=ab0b810b
DTITLE=Knut Reiersrud Band - Voodoo Without Killing Chiken
DYEAR=2008
DGENRE=Blues
TTITLE0=Voodoo Without Killing Chiken
TTITLE1=Weakness (Is  A Thing Called Man)
TTITLE2=Strawberry Moon
TTITLE3=Angel (Looking Over Me)
TTITLE4=Jumping The Gun
TTITLE5=Come Fly With Me
TTITLE6=The Boy From Congo Square
TTITLE7=Bad News
TTITLE8=Jordans Water
TTITLE9=Keep Her From Going To You
TTITLE10=Five Little Chickens
EXTD=
EXTT0=
EXTT1=
EXTT2=
EXTT3=
EXTT4=
EXTT5=
EXTT6=
EXTT7=
EXTT8=
EXTT9=
EXTT10=
PLAYORDER=
